<?xml version="1.0" encoding="UTF-8"?>
<svg id="Camada_2" data-name="Camada 2" xmlns="http://www.w3.org/2000/svg" viewBox="0 0 833.66 192.68">
  <defs>
    <style>
      .cls-1 {
        fill: #523178;
      }

      .cls-2 {
        fill: #1d1d1b;
      }
    </style>
  </defs>
  <g id="Camada_1-2" data-name="Camada 1">
    <g id="Camada_1-2" data-name="Camada 1-2">
      <g>
        <g>
          <path class="cls-2" d="M319.17,190.77h-67.47v-93.48h18.73v77.93h48.74v15.55h0Z"/>
          <path class="cls-2" d="M372.45,180.23l-3.55,7.73c-5,3.36-11.09,4.73-17.91,4.73-12.46,0-23.19-7.37-23.19-21.01s13.55-24.82,39.74-24.82h4.64v-1.45c0-2.18,0-4.36-.27-6.73-.55-5-3.82-8.64-11.09-8.64s-11.55,4.36-12.09,12.18h-18.19c.55-16.09,13.64-25.37,30.92-25.37s27.73,8.82,28.83,21.28c.27,3.36.45,7.18.45,11.09v23.28c0,5.46.27,10.28,1.36,18.28h-18.28l-1.36-10.55h0ZM372.18,164.22v-5.82c-14.91-1.09-24.92,2.27-24.92,11.82s4.36,9.37,11,9.37,14-5.27,14-15.28l-.09-.09Z"/>
          <path class="cls-2" d="M479.21,153.4c0,26.01-16,39.28-34.55,39.28s-13.28-1.45-16.91-4.09l-4.73-7.46v9.64h-18.73v-99.57h18.73v38.46l5.46-7.82c4.09-3.27,11.37-5,18.73-5,20.19,0,32.1,15.28,32.1,36.55h-.09ZM459.84,154.58c0-14.73-7.09-24.64-18.19-24.64s-18.73,6.37-18.73,24.01v3.36c0,16.37,9.37,22.19,18,22.19s18.82-8.27,18.82-24.92h.09Z"/>
          <path class="cls-2" d="M563.05,154.76c0,21.82-13.46,37.92-37.37,37.92s-37.37-16.09-37.37-37.92,13.46-37.92,37.37-37.92,37.37,16,37.37,37.92ZM543.68,154.76c0-15.55-6.82-24.82-18-24.82s-18,9.18-18,24.82,6.82,24.82,18,24.82,18-9.37,18-24.82Z"/>
          <path class="cls-2" d="M613.97,117.48v15c-15.55-1.09-23.28,5.82-23.28,25.19v33.1h-18.73v-72.11h18.73v13.19l5.73-10c3.55-3.27,8.27-4.91,12.37-4.91s3.64.09,5.27.55h-.09Z"/>
          <path class="cls-2" d="M685.8,144.67h-18.46c-1.73-10.46-7.18-14.73-14.91-14.73s-16.28,7.73-16.28,24.1,6.82,25.46,16.09,25.46,12.73-4.64,14.64-13.73h18.73c-3.09,17.73-16.37,26.82-34.37,26.82s-34.37-12.46-34.37-37.37,16.28-38.46,36.01-38.46,31.55,11.91,32.92,27.92h0Z"/>
          <path class="cls-2" d="M714.81,167.22c0,2.82,0,4.73.18,6.64.45,3.64,2,4.91,8.37,4.46v12.91c-3.64.36-7.27.55-11.55.55-9.18,0-15-3.36-15.46-12.73-.27-3.27-.27-6.64-.27-11.37v-76.47h18.73v76.02h0Z"/>
          <path class="cls-2" d="M754.27,101.75c0,6-4.18,9.91-10.28,9.91s-10.28-3.91-10.28-9.91,4.18-9.91,10.28-9.91,10.28,4.09,10.28,9.91ZM734.54,190.77v-72.11h18.73v72.11h-18.73Z"/>
          <path class="cls-2" d="M833.66,150.13v40.65h-18.73v-38.1c0-3,0-6.37-.27-10-.55-7.64-4.73-12.73-13.82-12.73s-16.28,7.82-16.28,27.92v32.92h-18.73v-72.11h18.73v11.64l5.55-8.55c5.18-3.64,10.46-5,17.37-5,15.28,0,24.1,7.64,25.64,20.19.45,3.64.55,7.37.55,13.19h0Z"/>
        </g>
        <path class="cls-1" d="M47.74,143.13h143.13v47.74H0v-95.39c79.02-.09,143.13-42.83,143.13-95.48h47.74c0,66.65-60.83,122.67-143.13,138.58v4.55h0Z"/>
      </g>
    </g>
  </g>
</svg>